<svg aria-hidden="true" style="position: absolute; width: 0; height: 0; overflow: hidden;" version="1.1"
  xmlns="http://www.w3.org/2000/svg"
  xmlns:xlink="http://www.w3.org/1999/xlink">
  <defs>
    <symbol id="cross" viewBox="0 0 24 24">
      <path d="M18 6L6 18" stroke="#121417" stroke-width="1.8" stroke-linecap="round" stroke-linejoin="round"></path>
      <path d="M6 6L18 18" stroke="#121417" stroke-width="1.8" stroke-linecap="round" stroke-linejoin="round"></path>
    </symbol>
    <symbol id="arrowDown" viewBox="0 0 20 20">
      <path d="M5 7.5L10 12.5L15 7.5" stroke="#121417" stroke-width="2" stroke-linecap="round" stroke-linejoin="round"></path>
    </symbol>
    <symbol id="heart" viewBox="0 0 18 18">
      <path d="M15.6301 3.45753C15.247 3.07428 14.7922 2.77026 14.2916 2.56284C13.791 2.35542 13.2545 2.24866 12.7126 2.24866C12.1707 2.24866 11.6342 2.35542 11.1336 2.56284C10.633 2.77026 10.1782 3.07428 9.79509 3.45753L9.00009 4.25253L8.20509 3.45753C7.43132 2.68376 6.38186 2.24906 5.28759 2.24906C4.19331 2.24906 3.14386 2.68376 2.37009 3.45753C1.59632 4.2313 1.16162 5.28075 1.16162 6.37503C1.16162 7.4693 1.59632 8.51876 2.37009 9.29253L3.16509 10.0875L9.00009 15.9225L14.8351 10.0875L15.6301 9.29253C16.0133 8.90946 16.3174 8.45464 16.5248 7.95404C16.7322 7.45345 16.839 6.91689 16.839 6.37503C16.839 5.83316 16.7322 5.2966 16.5248 4.79601C16.3174 4.29542 16.0133 3.84059 15.6301 3.45753Z"></path>
    </symbol>
    <symbol id="carKey" viewBox="0 0 32 32">
      <path fill="#434a54" style="fill: var(--color1, #434a54)" d="M5.333 23.983c-0.1 0-0.202-0.021-0.298-0.070-0.329-0.164-0.462-0.564-0.297-0.895 0.264-0.531 0.84-2.082 1.137-4.154 0.218-1.52 0.263-3.095 0.132-4.683-0.162-1.986-0.601-3.999-1.302-5.983-0.122-0.348 0.060-0.729 0.407-0.851 0.347-0.123 0.728 0.059 0.851 0.406 0.744 2.107 1.207 4.248 1.377 6.362 0.136 1.696 0.084 3.379-0.154 5.003-0.408 2.785-1.221 4.43-1.256 4.498-0.116 0.232-0.352 0.367-0.597 0.367z"></path>
      <path fill="#ed5564" style="fill: var(--color2, #ed5564)" d="M24 1.359h-17.333c-0.222 0-0.429 0.11-0.553 0.295l-4 5.948c-0.151 0.226-0.151 0.52 0 0.744l4 5.949c0.124 0.184 0.331 0.294 0.553 0.294h17.333c0.368 0 0.666-0.298 0.666-0.666v-11.897c0-0.368-0.298-0.667-0.666-0.667z"></path>
      <path fill="#f6bb42" style="fill: var(--color3, #f6bb42)" d="M26.014 28.676c-0.131 0-0.261-0.039-0.373-0.113l-1.646-1.113-1.63 1.066c-0.222 0.145-0.508 0.145-0.73 0l-1.631-1.066-1.635 1.088c-0.244 0.164-0.566 0.146-0.793-0.039l-1.36-1.119-7.507-0.076c-0.177-0.002-0.346-0.074-0.469-0.201s-0.191-0.297-0.188-0.475l0.092-6.668c0.005-0.365 0.302-0.658 0.667-0.658v0l18.522 0.008c0.178 0 0.347 0.070 0.472 0.195l4 4.008c0.203 0.203 0.253 0.514 0.125 0.77l-1.334 2.666c-0.064 0.127-0.165 0.23-0.292 0.295l-3.986 1.361c-0.096 0.049-0.199 0.072-0.304 0.072z"></path>
      <path fill="#ffce54" style="fill: var(--color4, #ffce54)" d="M12.591 18.194c-1.366-1.404-3.197-2.192-5.156-2.218-0.034-0.001-0.068-0.001-0.103-0.001-1.937 0-3.765 0.75-5.145 2.11-1.383 1.363-2.158 3.182-2.186 5.123-0.026 1.959 0.711 3.811 2.077 5.215 1.365 1.402 3.196 2.191 5.155 2.219 0.034 0 0.068 0 0.103 0 1.938 0 3.765-0.75 5.146-2.109 1.383-1.363 2.158-3.182 2.186-5.123 0.026-1.959-0.711-3.811-2.076-5.215z"></path>
      <path fill="#080808" style="fill: var(--color5, #080808)" d="M5.805 22.846c0.26 0.26 0.26 0.682 0 0.941-0.261 0.262-0.683 0.262-0.943 0-0.26-0.26-0.26-0.682 0-0.941 0.261-0.262 0.683-0.262 0.943 0z"></path>
      <path fill="#ffce54" style="fill: var(--color4, #ffce54)" d="M30.279 21.983h-9.613c-0.367 0-0.666 0.299-0.666 0.668 0 0.367 0.299 0.666 0.666 0.666h10.943l-1.33-1.334z"></path>
      <path fill="#656d78" style="fill: var(--color6, #656d78)" d="M5.335 23.983c-0.248 0-0.485-0.137-0.601-0.375-0.84-1.729-1.362-3.643-1.554-5.689-0.15-1.626-0.094-3.34 0.171-5.094 0.448-2.98 1.334-5.030 1.371-5.116 0.147-0.338 0.541-0.491 0.878-0.344 0.338 0.146 0.492 0.54 0.345 0.877-0.009 0.020-0.862 2.003-1.281 4.819-0.245 1.643-0.296 3.243-0.153 4.758 0.178 1.877 0.656 3.629 1.423 5.207 0.161 0.33 0.023 0.73-0.308 0.891-0.094 0.045-0.193 0.066-0.291 0.066z"></path>
      <path fill="#f5f7fa" style="fill: var(--color7, #f5f7fa)" d="M21.464 6.655l-3.073-0.613-1.168-1.768c-0.123-0.188-0.332-0.3-0.556-0.3h-4.668c-0.225 0-0.434 0.112-0.557 0.3l-1.122 1.7h-1.653c-0.368 0-0.666 0.299-0.666 0.667v3.333c0 0.368 0.298 0.667 0.666 0.667h12.666c0.368 0 0.667-0.299 0.667-0.667v-2.665c0-0.318-0.225-0.592-0.536-0.654z"></path>
      <path fill="#434a54" style="fill: var(--color1, #434a54)" d="M12.001 8.974c-0.919 0-1.667 0.748-1.667 1.667s0.748 1.667 1.667 1.667c0.919 0 1.666-0.748 1.666-1.667s-0.747-1.667-1.666-1.667z"></path>
      <path fill="#434a54" style="fill: var(--color1, #434a54)" d="M18 8.974c-0.919 0-1.667 0.748-1.667 1.667s0.748 1.667 1.667 1.667c0.919 0 1.666-0.748 1.666-1.667s-0.747-1.667-1.666-1.667z"></path>
    </symbol>
  </defs>
</svg>
