<svg aria-hidden="true" style="position: absolute; width: 0; height: 0; overflow: hidden;" version="1.1"
  xmlns="http://www.w3.org/2000/svg"
  xmlns:xlink="http://www.w3.org/1999/xlink">
  <defs>
    <symbol id="cross" viewBox="0 0 32 32">
      <path stroke-linejoin="round" stroke-linecap="round" stroke-miterlimit="4" stroke-width="2.4" d="M24 8l-16 16"></path>
      <path stroke-linejoin="round" stroke-linecap="round" stroke-miterlimit="4" stroke-width="2.4" d="M8 8l16 16"></path>
    </symbol>
    <symbol id="arrowDown" viewBox="0 0 32 32">
      <path stroke-linejoin="round" stroke-linecap="round" stroke-miterlimit="4" stroke-width="3.2" d="M8 12l8 8 8-8"></path>
    </symbol>
    <symbol id="usd" viewBox="0 0 21 32">
      <path d="M8.792 31.59v-3.913h3.016v3.913h-3.016zM8.792 4.399v-3.93h3.016v3.93h-3.016zM10.537 28.744c-1.649 0-3.134-0.294-4.456-0.881-1.31-0.599-2.389-1.44-3.236-2.524-0.847-1.096-1.4-2.383-1.66-3.863l2.965-0.491c0.361 1.502 1.124 2.694 2.287 3.575 1.175 0.881 2.586 1.321 4.235 1.321 1.66 0 3.004-0.401 4.032-1.203s1.542-1.835 1.542-3.1c0-0.926-0.277-1.672-0.83-2.236-0.542-0.565-1.457-1.045-2.744-1.44l-5.574-1.728c-3.332-1.039-4.998-3.027-4.998-5.963 0-1.378 0.333-2.581 1-3.608 0.678-1.039 1.621-1.841 2.829-2.406 1.22-0.576 2.637-0.858 4.252-0.847 1.57 0.011 2.97 0.305 4.201 0.881 1.231 0.565 2.248 1.378 3.049 2.44 0.813 1.062 1.361 2.332 1.643 3.812l-3.049 0.559c-0.158-0.96-0.508-1.801-1.050-2.524-0.531-0.723-1.208-1.282-2.033-1.677-0.824-0.407-1.751-0.616-2.778-0.627-0.96-0.011-1.824 0.147-2.592 0.474-0.757 0.328-1.355 0.785-1.796 1.372s-0.661 1.259-0.661 2.016c0 0.824 0.305 1.525 0.915 2.101 0.621 0.565 1.592 1.050 2.914 1.457l4.574 1.355c2.010 0.599 3.462 1.406 4.354 2.423 0.892 1.005 1.338 2.349 1.338 4.032 0 1.457-0.361 2.733-1.084 3.829-0.712 1.096-1.722 1.948-3.032 2.558-1.299 0.61-2.818 0.915-4.557 0.915z"></path>
    </symbol>
    <symbol id="heart" viewBox="0 0 32 32">
      <path stroke-linejoin="round" stroke-linecap="round" stroke-miterlimit="4" stroke-width="2.6667" d="M27.787 6.147c-0.681-0.681-1.49-1.222-2.38-1.591s-1.844-0.559-2.807-0.559c-0.963 0-1.917 0.19-2.807 0.559s-1.698 0.909-2.38 1.591l-1.413 1.413-1.413-1.413c-1.376-1.376-3.241-2.148-5.187-2.148s-3.811 0.773-5.187 2.148c-1.376 1.376-2.148 3.241-2.148 5.187s0.773 3.811 2.148 5.187l11.787 11.787 11.787-11.787c0.681-0.681 1.222-1.49 1.591-2.38s0.559-1.844 0.559-2.807c0-0.963-0.19-1.917-0.559-2.807s-0.909-1.699-1.591-2.38z"></path>
    </symbol>
    <symbol id="carKey" viewBox="0 0 32 32">
      <path fill="#434a54" style="fill: var(--color1, #434a54)" d="M5.333 23.983c-0.1 0-0.202-0.021-0.298-0.070-0.329-0.164-0.462-0.564-0.297-0.895 0.264-0.531 0.84-2.082 1.137-4.154 0.218-1.52 0.263-3.095 0.132-4.683-0.162-1.986-0.601-3.999-1.302-5.983-0.122-0.348 0.060-0.729 0.407-0.851 0.347-0.123 0.728 0.059 0.851 0.406 0.744 2.107 1.207 4.248 1.377 6.362 0.136 1.696 0.084 3.379-0.154 5.003-0.408 2.785-1.221 4.43-1.256 4.498-0.116 0.232-0.352 0.367-0.597 0.367z"></path>
      <path fill="#ed5564" style="fill: var(--color2, #ed5564)" d="M24 1.359h-17.333c-0.222 0-0.429 0.11-0.553 0.295l-4 5.948c-0.151 0.226-0.151 0.52 0 0.744l4 5.949c0.124 0.184 0.331 0.294 0.553 0.294h17.333c0.368 0 0.666-0.298 0.666-0.666v-11.897c0-0.368-0.298-0.667-0.666-0.667z"></path>
      <path fill="#f6bb42" style="fill: var(--color3, #f6bb42)" d="M26.014 28.676c-0.131 0-0.261-0.039-0.373-0.113l-1.646-1.113-1.63 1.066c-0.222 0.145-0.508 0.145-0.73 0l-1.631-1.066-1.635 1.088c-0.244 0.164-0.566 0.146-0.793-0.039l-1.36-1.119-7.507-0.076c-0.177-0.002-0.346-0.074-0.469-0.201s-0.191-0.297-0.188-0.475l0.092-6.668c0.005-0.365 0.302-0.658 0.667-0.658v0l18.522 0.008c0.178 0 0.347 0.070 0.472 0.195l4 4.008c0.203 0.203 0.253 0.514 0.125 0.77l-1.334 2.666c-0.064 0.127-0.165 0.23-0.292 0.295l-3.986 1.361c-0.096 0.049-0.199 0.072-0.304 0.072z"></path>
      <path fill="#ffce54" style="fill: var(--color4, #ffce54)" d="M12.591 18.194c-1.366-1.404-3.197-2.192-5.156-2.218-0.034-0.001-0.068-0.001-0.103-0.001-1.937 0-3.765 0.75-5.145 2.11-1.383 1.363-2.158 3.182-2.186 5.123-0.026 1.959 0.711 3.811 2.077 5.215 1.365 1.402 3.196 2.191 5.155 2.219 0.034 0 0.068 0 0.103 0 1.938 0 3.765-0.75 5.146-2.109 1.383-1.363 2.158-3.182 2.186-5.123 0.026-1.959-0.711-3.811-2.076-5.215z"></path>
      <path fill="#080808" style="fill: var(--color5, #080808)" d="M5.805 22.846c0.26 0.26 0.26 0.682 0 0.941-0.261 0.262-0.683 0.262-0.943 0-0.26-0.26-0.26-0.682 0-0.941 0.261-0.262 0.683-0.262 0.943 0z"></path>
      <path fill="#ffce54" style="fill: var(--color4, #ffce54)" d="M30.279 21.983h-9.613c-0.367 0-0.666 0.299-0.666 0.668 0 0.367 0.299 0.666 0.666 0.666h10.943l-1.33-1.334z"></path>
      <path fill="#656d78" style="fill: var(--color6, #656d78)" d="M5.335 23.983c-0.248 0-0.485-0.137-0.601-0.375-0.84-1.729-1.362-3.643-1.554-5.689-0.15-1.626-0.094-3.34 0.171-5.094 0.448-2.98 1.334-5.030 1.371-5.116 0.147-0.338 0.541-0.491 0.878-0.344 0.338 0.146 0.492 0.54 0.345 0.877-0.009 0.020-0.862 2.003-1.281 4.819-0.245 1.643-0.296 3.243-0.153 4.758 0.178 1.877 0.656 3.629 1.423 5.207 0.161 0.33 0.023 0.73-0.308 0.891-0.094 0.045-0.193 0.066-0.291 0.066z"></path>
      <path fill="#f5f7fa" style="fill: var(--color7, #f5f7fa)" d="M21.464 6.655l-3.073-0.613-1.168-1.768c-0.123-0.188-0.332-0.3-0.556-0.3h-4.668c-0.225 0-0.434 0.112-0.557 0.3l-1.122 1.7h-1.653c-0.368 0-0.666 0.299-0.666 0.667v3.333c0 0.368 0.298 0.667 0.666 0.667h12.666c0.368 0 0.667-0.299 0.667-0.667v-2.665c0-0.318-0.225-0.592-0.536-0.654z"></path>
      <path fill="#434a54" style="fill: var(--color1, #434a54)" d="M12.001 8.974c-0.919 0-1.667 0.748-1.667 1.667s0.748 1.667 1.667 1.667c0.919 0 1.666-0.748 1.666-1.667s-0.747-1.667-1.666-1.667z"></path>
      <path fill="#434a54" style="fill: var(--color1, #434a54)" d="M18 8.974c-0.919 0-1.667 0.748-1.667 1.667s0.748 1.667 1.667 1.667c0.919 0 1.666-0.748 1.666-1.667s-0.747-1.667-1.666-1.667z"></path>
    </symbol>
  </defs>
</svg>
